<?xml version="1.0" encoding="iso-8859-1"?>
<!-- Uploaded to: SVG Repo, www.svgrepo.com, Generator: SVG Repo Mixer Tools -->
<svg height="800px" width="800px" version="1.1" id="Layer_1" xmlns="http://www.w3.org/2000/svg" xmlns:xlink="http://www.w3.org/1999/xlink" 
	 viewBox="0 0 512 512" xml:space="preserve">
<path style="fill:#E6E6E6;" d="M246.359,203.738v-23.959c0-8.222-6.675-14.897-14.897-14.897h-8.13h-39.311h-12.598
	c-8.222,0-14.897,6.675-14.897,14.897v23.959"/>
<path style="fill:#CCCCCC;" d="M197.576,164.883h-13.555h-12.598c-8.221,0-14.897,6.675-14.897,14.897v23.959h26.153v-23.959
	C182.68,171.557,189.355,164.883,197.576,164.883z"/>
<path style="fill:#4D4D4D;" d="M325.597,488.684H375.4v-74.626h-35.739c-7.767,0-14.064,6.296-14.064,14.064V488.684z"/>
<path style="fill:#47A7DD;" d="M325.597,458.929V245.105c0-25.983-21.071-47.054-47.054-47.054H124.349
	c-25.995,0-47.054,21.071-47.054,47.054V492.52h194.232"/>
<path style="fill:#3F9EC9;" d="M178.929,198.052h-54.58c-25.995,0-47.054,21.071-47.054,47.054V492.52h54.578V245.105
	C131.874,219.123,152.933,198.052,178.929,198.052z"/>
<polygon style="fill:#F2F2F2;" points="395.413,123.262 395.413,468.948 356.102,468.948 356.102,379.687 356.102,123.262 "/>
<polygon style="fill:#E6E6E6;" points="368.578,123.262 368.578,468.948 356.102,468.948 356.102,379.687 356.102,123.262 "/>
<g>
	<path style="fill:#247396;" d="M395.413,105.695v23.698h-39.311v-23.698c0-36.615-29.781-66.397-66.385-66.397
		s-66.385,29.781-66.385,66.397v59.187h-39.311v-59.187C184.021,47.417,231.439,0,289.716,0S395.413,47.419,395.413,105.695z"/>
	<path style="fill:#247396;" d="M325.593,272.495h-248.3c-4.71,0-8.528-3.818-8.528-8.528s3.818-8.528,8.528-8.528h248.3
		c4.71,0,8.528,3.818,8.528,8.528C334.121,268.675,330.303,272.495,325.593,272.495z"/>
</g>
<path style="fill:#4D4D4D;" d="M42.803,511.989h22.568c6.584,0,11.921-5.338,11.921-11.921v-74.087
	c0-6.584-5.338-11.921-11.921-11.921H42.803c-6.584,0-11.921,5.338-11.921,11.921v74.087
	C30.881,506.651,36.219,511.989,42.803,511.989z"/>
<path style="fill:#E6E6E6;" d="M265.036,414.058h60.557V303.195h-60.557c-13.714,0-24.833,11.117-24.833,24.833v61.199
	C240.203,402.941,251.322,414.058,265.036,414.058z"/>
<path style="fill:#CCCCCC;" d="M481.118,494.451V512h-118.5h-91.095v-0.011v-17.537c0-19.618,15.904-35.521,35.521-35.521h18.049
	h31.01h39.311h50.183C465.214,458.93,481.118,474.834,481.118,494.451z"/>
<path style="fill:#B3B3B3;" d="M312.458,494.451c0-19.618,15.904-35.521,35.521-35.521h-22.887h-18.049
	c-19.618,0-35.521,15.904-35.521,35.521v17.537V512h40.934v-0.011v-17.537H312.458z"/>
</svg>